<?xml version="1.0" encoding="utf-8" standalone="no"?>
<!DOCTYPE svg PUBLIC "-//W3C//DTD SVG 1.1//EN"
  "http://www.w3.org/Graphics/SVG/1.1/DTD/svg11.dtd">
<!-- Created with matplotlib (http://matplotlib.org/) -->
<svg height="288pt" version="1.1" viewBox="0 0 432 288" width="432pt" xmlns="http://www.w3.org/2000/svg" xmlns:xlink="http://www.w3.org/1999/xlink">
 <defs>
  <style type="text/css">
*{stroke-linecap:butt;stroke-linejoin:round;}
  </style>
 </defs>
 <g id="figure_1">
  <g id="patch_1">
   <path d="M 0 288 
L 432 288 
L 432 0 
L 0 0 
z
" style="fill:#ffffff;"/>
  </g>
  <g id="axes_1">
   <g id="patch_2">
    <path clip-path="url(#pa21134e25f)" d="M 69.218182 252 
L 99.654545 252 
L 99.654545 215.946813 
L 69.218182 215.946813 
z
" style="fill:#008000;opacity:0.81;stroke:#ffffff;stroke-linejoin:miter;"/>
   </g>
   <g id="patch_3">
    <path clip-path="url(#pa21134e25f)" d="M 99.654545 252 
L 130.090909 252 
L 130.090909 153.356686 
L 99.654545 153.356686 
z
" style="fill:#008000;opacity:0.81;stroke:#ffffff;stroke-linejoin:miter;"/>
   </g>
   <g id="patch_4">
    <path clip-path="url(#pa21134e25f)" d="M 130.090909 252 
L 160.527273 252 
L 160.527273 238.332263 
L 130.090909 238.332263 
z
" style="fill:#008000;opacity:0.81;stroke:#ffffff;stroke-linejoin:miter;"/>
   </g>
   <g id="patch_5">
    <path clip-path="url(#pa21134e25f)" d="M 160.527273 252 
L 190.963636 252 
L 190.963636 212.13617 
L 160.527273 212.13617 
z
" style="fill:#008000;opacity:0.81;stroke:#ffffff;stroke-linejoin:miter;"/>
   </g>
   <g id="patch_6">
    <path clip-path="url(#pa21134e25f)" d="M 190.963636 252 
L 221.4 252 
L 221.4 113.927133 
L 190.963636 113.927133 
z
" style="fill:#008000;opacity:0.81;stroke:#ffffff;stroke-linejoin:miter;"/>
   </g>
   <g id="patch_7">
    <path clip-path="url(#pa21134e25f)" d="M 221.4 252 
L 251.836364 252 
L 251.836364 226.602551 
L 221.4 226.602551 
z
" style="fill:#008000;opacity:0.81;stroke:#ffffff;stroke-linejoin:miter;"/>
   </g>
   <g id="patch_8">
    <path clip-path="url(#pa21134e25f)" d="M 251.836364 252 
L 282.272727 252 
L 282.272727 162.689056 
L 251.836364 162.689056 
z
" style="fill:#008000;opacity:0.81;stroke:#ffffff;stroke-linejoin:miter;"/>
   </g>
   <g id="patch_9">
    <path clip-path="url(#pa21134e25f)" d="M 282.272727 252 
L 312.709091 252 
L 312.709091 118.603432 
L 282.272727 118.603432 
z
" style="fill:#008000;opacity:0.81;stroke:#ffffff;stroke-linejoin:miter;"/>
   </g>
   <g id="patch_10">
    <path clip-path="url(#pa21134e25f)" d="M 312.709091 252 
L 343.145455 252 
L 343.145455 221.55376 
L 312.709091 221.55376 
z
" style="fill:#008000;opacity:0.81;stroke:#ffffff;stroke-linejoin:miter;"/>
   </g>
   <g id="patch_11">
    <path clip-path="url(#pa21134e25f)" d="M 343.145455 252 
L 373.581818 252 
L 373.581818 132.052134 
L 343.145455 132.052134 
z
" style="fill:#008000;opacity:0.81;stroke:#ffffff;stroke-linejoin:miter;"/>
   </g>
  </g>
 </g>
 <defs>
  <clipPath id="pa21134e25f">
   <rect height="217.44" width="334.8" x="54" y="34.56"/>
  </clipPath>
 </defs>
</svg>
