<?xml version="1.0" encoding="utf-8" standalone="no"?>
<!DOCTYPE svg PUBLIC "-//W3C//DTD SVG 1.1//EN"
  "http://www.w3.org/Graphics/SVG/1.1/DTD/svg11.dtd">
<!-- Created with matplotlib (http://matplotlib.org/) -->
<svg height="288pt" version="1.1" viewBox="0 0 432 288" width="432pt" xmlns="http://www.w3.org/2000/svg" xmlns:xlink="http://www.w3.org/1999/xlink">
 <defs>
  <style type="text/css">
*{stroke-linecap:butt;stroke-linejoin:round;}
  </style>
 </defs>
 <g id="figure_1">
  <g id="patch_1">
   <path d="M 0 288 
L 432 288 
L 432 0 
L 0 0 
z
" style="fill:#ffffff;"/>
  </g>
  <g id="axes_1">
   <g id="patch_2">
    <path clip-path="url(#pdf23003a6d)" d="M 69.218182 252 
L 99.654545 252 
L 99.654545 147.964442 
L 69.218182 147.964442 
z
" style="fill:#0000ff;opacity:0.81;stroke:#ffffff;stroke-linejoin:miter;"/>
   </g>
   <g id="patch_3">
    <path clip-path="url(#pdf23003a6d)" d="M 99.654545 252 
L 130.090909 252 
L 130.090909 146.815953 
L 99.654545 146.815953 
z
" style="fill:#0000ff;opacity:0.81;stroke:#ffffff;stroke-linejoin:miter;"/>
   </g>
   <g id="patch_4">
    <path clip-path="url(#pdf23003a6d)" d="M 130.090909 252 
L 160.527273 252 
L 160.527273 184.389943 
L 130.090909 184.389943 
z
" style="fill:#0000ff;opacity:0.81;stroke:#ffffff;stroke-linejoin:miter;"/>
   </g>
   <g id="patch_5">
    <path clip-path="url(#pdf23003a6d)" d="M 160.527273 252 
L 190.963636 252 
L 190.963636 223.861691 
L 160.527273 223.861691 
z
" style="fill:#0000ff;opacity:0.81;stroke:#ffffff;stroke-linejoin:miter;"/>
   </g>
   <g id="patch_6">
    <path clip-path="url(#pdf23003a6d)" d="M 190.963636 252 
L 221.4 252 
L 221.4 153.973201 
L 190.963636 153.973201 
z
" style="fill:#0000ff;opacity:0.81;stroke:#ffffff;stroke-linejoin:miter;"/>
   </g>
   <g id="patch_7">
    <path clip-path="url(#pdf23003a6d)" d="M 221.4 252 
L 251.836364 252 
L 251.836364 242.97349 
L 221.4 242.97349 
z
" style="fill:#0000ff;opacity:0.81;stroke:#ffffff;stroke-linejoin:miter;"/>
   </g>
   <g id="patch_8">
    <path clip-path="url(#pdf23003a6d)" d="M 251.836364 252 
L 282.272727 252 
L 282.272727 202.444809 
L 251.836364 202.444809 
z
" style="fill:#0000ff;opacity:0.81;stroke:#ffffff;stroke-linejoin:miter;"/>
   </g>
   <g id="patch_9">
    <path clip-path="url(#pdf23003a6d)" d="M 282.272727 252 
L 312.709091 252 
L 312.709091 139.410153 
L 282.272727 139.410153 
z
" style="fill:#0000ff;opacity:0.81;stroke:#ffffff;stroke-linejoin:miter;"/>
   </g>
   <g id="patch_10">
    <path clip-path="url(#pdf23003a6d)" d="M 312.709091 252 
L 343.145455 252 
L 343.145455 149.080529 
L 312.709091 149.080529 
z
" style="fill:#0000ff;opacity:0.81;stroke:#ffffff;stroke-linejoin:miter;"/>
   </g>
   <g id="patch_11">
    <path clip-path="url(#pdf23003a6d)" d="M 343.145455 252 
L 373.581818 252 
L 373.581818 204.28579 
L 343.145455 204.28579 
z
" style="fill:#0000ff;opacity:0.81;stroke:#ffffff;stroke-linejoin:miter;"/>
   </g>
  </g>
 </g>
 <defs>
  <clipPath id="pdf23003a6d">
   <rect height="217.44" width="334.8" x="54" y="34.56"/>
  </clipPath>
 </defs>
</svg>
